<mxfile host="app.diagrams.net" modified="2023-11-11T05:11:26.176Z" agent="Mozilla/5.0 (Windows NT 10.0; Win64; x64) AppleWebKit/537.36 (KHTML, like Gecko) Chrome/119.0.0.0 Safari/537.36" version="22.1.0" etag="7MB068o3pUTAS9TGsDkL" type="github">
  <diagram name="第 1 页" id="gZ5gObQEiGz1B8b_Fx0x">
    <mxGraphModel>
      <root>
        <mxCell id="0" />
        <mxCell id="1" parent="0" />
      </root>
    </mxGraphModel>
  </diagram>
</mxfile>
